<svg width="680" height="141" viewBox="0 0 680 141" fill="none" xmlns="http://www.w3.org/2000/svg">
<path d="M545 1.00001V141H520V66L445 141H405L545 1.00001Z" fill="white"/>
<path d="M560 141V1H585V56L640 1H680L585 96L585 141L560 141Z" fill="white"/>
<path d="M525 1H385V26H460L385 101V141L525 1Z" fill="white"/>
<path d="M410 101V116L385 141V1H410V26V101Z" fill="white"/>
<path d="M140 0V140H115H100V115H115V65L40 140H0L140 0Z" fill="white"/>
<path d="M270 1V141H295V66L370 141V1H347V76L270 1Z" fill="white"/>
<path d="M155 140V0H180V115H230V0H255V141L155 140Z" fill="white"/>
</svg>
